HIERARCHY
ROOT joint_Root
{
  OFFSET 0 0 0
  CHANNELS 6 Xposition Yposition Zposition Zrotation Xrotation Yrotation
  JOINT Hips
  {
    OFFSET 0 93.9241 -3
    CHANNELS 6 Xposition Yposition Zposition Zrotation Xrotation Yrotation
    JOINT Spine
    {
      OFFSET 15.7357 0 0
      CHANNELS 6 Xposition Yposition Zposition Zrotation Xrotation Yrotation
      JOINT Chest
      {
        OFFSET 8.98455 -0.406207 0
        CHANNELS 6 Xposition Yposition Zposition Zrotation Xrotation Yrotation
        JOINT Neck
        {
          OFFSET 16.3773 0 0
          CHANNELS 6 Xposition Yposition Zposition Zrotation Xrotation Yrotation
          JOINT Head
          {
            OFFSET 6.45672 0 0
            CHANNELS 6 Xposition Yposition Zposition Zrotation Xrotation Yrotation
            End Site
            {
              OFFSET 0 0 0
            }
          }
        }
        JOINT Shoulder_L
        {
          OFFSET 12.9942 -0.242716 4.98039
          CHANNELS 6 Xposition Yposition Zposition Zrotation Xrotation Yrotation
          JOINT UpperArm_L
          {
            OFFSET 5.34809 0 0
            CHANNELS 6 Xposition Yposition Zposition Zrotation Xrotation Yrotation
            JOINT LowerArm_L
            {
              OFFSET 24.3286 1.87007e-05 0
              CHANNELS 6 Xposition Yposition Zposition Zrotation Xrotation Yrotation
              JOINT Hand_L
              {
                OFFSET 22.2916 0 0
                CHANNELS 6 Xposition Yposition Zposition Zrotation Xrotation Yrotation
                End Site
                {
                  OFFSET 0 0 0
                }
              }
            }
          }
        }
        JOINT Shoulder_R
        {
          OFFSET 12.9945 -0.242716 -4.98039
          CHANNELS 6 Xposition Yposition Zposition Zrotation Xrotation Yrotation
          JOINT UpperArm_R
          {
            OFFSET -5.34813 0 0
            CHANNELS 6 Xposition Yposition Zposition Zrotation Xrotation Yrotation
            JOINT LowerArm_R
            {
              OFFSET -24.3289 0.000322201 0
              CHANNELS 6 Xposition Yposition Zposition Zrotation Xrotation Yrotation
              JOINT Hand_R
              {
                OFFSET -22.2915 -0.000108084 0
                CHANNELS 6 Xposition Yposition Zposition Zrotation Xrotation Yrotation
                End Site
                {
                  OFFSET 0 0 0
                }
              }
            }
          }
        }
      }
    }
    JOINT UpperLeg_L
    {
      OFFSET -2.19248 -6.46944 0
      CHANNELS 6 Xposition Yposition Zposition Zrotation Xrotation Yrotation
      JOINT LowerLeg_L
      {
        OFFSET 39.0811 0 -1.23785e-05
        CHANNELS 6 Xposition Yposition Zposition Zrotation Xrotation Yrotation
        JOINT Foot_L
        {
          OFFSET 40.9854 0 -1.26872e-05
          CHANNELS 6 Xposition Yposition Zposition Zrotation Xrotation Yrotation
          JOINT Toes_L
          {
            OFFSET 11.7543 0 0
            CHANNELS 6 Xposition Yposition Zposition Zrotation Xrotation Yrotation
            End Site
            {
              OFFSET 0 0 0
            }
          }
        }
      }
    }
    JOINT UpperLeg_R
    {
      OFFSET -2.19251 6.46944 0
      CHANNELS 6 Xposition Yposition Zposition Zrotation Xrotation Yrotation
      JOINT LowerLeg_R
      {
        OFFSET -39.0811 -0.00228153 -0.0401928
        CHANNELS 6 Xposition Yposition Zposition Zrotation Xrotation Yrotation
        JOINT Foot_R
        {
          OFFSET -40.9854 0 0
          CHANNELS 6 Xposition Yposition Zposition Zrotation Xrotation Yrotation
          JOINT Toes_R
          {
            OFFSET -11.7543 0 0
            CHANNELS 6 Xposition Yposition Zposition Zrotation Xrotation Yrotation
            End Site
            {
              OFFSET 0 0 0
            }
          }
        }
      }
    }
  }
}
MOTION
Frames:	6
Frame Time:	0.0333333
0 0 0 0 0 -0 -2.07392 91.3528 360.003 89.4868 22.5861 2.58679 15.7357 5.1072e-06 -5.51765e-07 109.909 80.634 -108.765 8.98455 -0.406207 -4.3199e-07 9.82801 6.36023 1.74158 16.3773 -1.3905e-06 -6.99897e-07 -4.50572 -6.92355 -1.23628 6.45672 -1.25837e-06 -1.02172e-07 -2.57039 -17.1886 4.26043 12.9942 -0.242716 4.98039 -90.0687 0.344104 -93.714 5.34809 -7.22636e-06 -6.2814e-07 -70.2609 -2.38596 12.6836 24.3286 1.87007e-05 4.90208e-06 4.51206 11.7106 -21.2459 22.2916 -9.88446e-07 4.63217e-06 8.33077 5.12455 4.54498 12.9945 -0.242716 -4.98039 89.9841 1.434 -104.363 -5.34813 -1.25947e-06 -3.79883e-06 -54.9278 -18.0919 12.2378 -24.3289 0.000322201 -8.65921e-06 5.54874 13.3888 -22.7637 -22.2915 -0.000108084 -4.47941e-06 16.565 5.24211 1.64046 -2.19248 -6.46944 -1.22533e-07 174.449 -10.0748 -15.9948 39.0811 -6.73843e-06 -1.23785e-05 0.101211 -0.168229 25.8207 40.9854 -6.48686e-06 -1.26872e-05 10.9216 23.007 -59.9907 11.7543 -2.30145e-07 3.05095e-06 0.11166 -0.126504 -17.8072 -2.19251 6.46944 -1.45247e-06 -178.46 20.0272 159.545 -39.0811 -0.00228153 -0.0401928 0.0182749 -0.00518105 53.6524 -40.9854 7.72618e-06 5.99936e-06 1.47105 -16.5402 -60.8398 -11.7543 -5.6619e-06 -5.58687e-06 0.230038 -0.245924 -18.4485 
0 0 0 0 0 -0 -2.1994 91.223 357.988 89.933 21.4096 1.82213 15.7357 5.1072e-06 -5.51764e-07 112.322 80.9177 -111.62 8.98455 -0.406207 -4.3199e-07 9.04356 6.87059 0.861866 16.3773 -1.3905e-06 -6.99897e-07 -4.43486 -6.41077 -0.809514 6.45672 -1.25837e-06 -1.02172e-07 -1.74331 -16.7951 4.6545 12.9942 -0.242716 4.98039 -90.0112 0.0491654 -92.0464 5.34809 -7.22636e-06 -6.2814e-07 -68.506 -5.22858 17.5013 24.3286 1.87007e-05 4.90208e-06 4.09258 11.831 -19.2385 22.2916 -9.88446e-07 4.63217e-06 8.16847 5.10444 5.01193 12.9945 -0.242716 -4.98039 89.9979 0.465516 -104.744 -5.34813 -1.25947e-06 -3.79883e-06 -53.0581 -20.9194 11.5015 -24.3289 0.000322201 -8.65921e-06 6.75992 11.7061 -30.308 -22.2915 -0.000108084 -4.47941e-06 16.7485 5.26969 0.909968 -2.19248 -6.46944 -1.22533e-07 173.343 -9.79593 -17.4943 39.0811 -6.73843e-06 -1.23785e-05 0.0791116 -0.130934 24.7581 40.9854 -6.48686e-06 -1.26872e-05 10.4904 21.7675 -57.8487 11.7543 -2.30145e-07 3.05095e-06 0.126671 -0.143929 -17.9747 -2.19251 6.46944 -1.45247e-06 -177.87 19.6196 162.141 -39.0811 -0.00228153 -0.0401928 0.0175856 0.000921396 55.8007 -40.9854 7.72618e-06 5.99936e-06 -1.3406 -17.2958 -66.0691 -11.7543 -5.6619e-06 -5.58687e-06 0.182772 -0.194064 -18.0579 
0 0 0 0 0 -0 -2.34723 91.02 355.76 90.3862 19.0161 1.05115 15.7357 5.1072e-06 -5.51765e-07 116.85 81.0253 -116.62 8.98455 -0.406207 -4.3199e-07 8.29375 8.07122 -0.126553 16.3773 -1.3905e-06 -6.99897e-07 -4.36903 -5.89012 -0.507904 6.45672 -1.25837e-06 -1.02172e-07 -1.06802 -16.7225 5.01395 12.9942 -0.242716 4.98039 -89.9867 -0.0513247 -90.4476 5.34809 -7.22636e-06 -6.2814e-07 -66.0203 -9.15671 21.5636 24.3286 1.87007e-05 4.90208e-06 3.74852 12.1875 -17.2414 22.2916 -9.88446e-07 4.63217e-06 8.07732 5.10896 4.90788 12.9945 -0.242716 -4.98039 90.0001 -0.529175 -104.98 -5.34813 -1.25947e-06 -3.79883e-06 -51.8282 -20.8257 10.8644 -24.3289 0.000322201 -8.65921e-06 7.69759 9.55479 -39.1587 -22.2915 -0.000108084 -4.47941e-06 17.7466 5.30307 -0.00988963 -2.19248 -6.46944 -1.22533e-07 172.341 -9.98823 -19.2566 39.0811 -6.73843e-06 -1.23785e-05 0.0599422 -0.097077 23.7046 40.9854 -6.48686e-06 -1.26872e-05 9.91952 19.9113 -55.5255 11.7543 -2.30145e-07 3.05095e-06 0.123151 -0.13985 -17.9355 -2.19251 6.46944 -1.45247e-06 -177.452 18.6091 164.86 -39.0811 -0.00228153 -0.0401928 -0.00780354 0.0208938 56.0866 -40.9854 7.72618e-06 5.99936e-06 -1.78469 -18.2844 -67.6948 -11.7543 -5.6619e-06 -5.58687e-06 0.21906 -0.233819 -18.3576 
0 0 0 0 0 -0 -2.39809 90.6642 353.236 90.9967 15.125 0.342631 15.7357 5.1072e-06 -5.51765e-07 122.061 80.9231 -122.392 8.98455 -0.406207 -4.3199e-07 7.72875 9.59812 -1.31264 16.3773 -1.3905e-06 -6.99897e-07 -4.37666 -5.10776 -0.222232 6.45672 -1.25837e-06 -1.02172e-07 -0.664596 -16.3783 5.17452 12.9942 -0.242716 4.98039 -90.0339 0.116453 -88.8171 5.34809 -7.22636e-06 -6.2814e-07 -63.2351 -13.1955 25.4406 24.3286 1.87007e-05 4.90208e-06 3.2813 11.8652 -15.5798 22.2916 -9.88446e-07 4.63217e-06 8.71076 5.12673 4.49464 12.9945 -0.242716 -4.98039 89.9947 -1.10491 -105.276 -5.34813 -1.25947e-06 -3.79883e-06 -50.5151 -20.5795 9.77972 -24.3289 0.000322201 -8.65921e-06 11.0286 9.60879 -49.4033 -22.2915 -0.000108084 -4.47941e-06 18.7596 5.31565 -0.370796 -2.19248 -6.46944 -1.22534e-07 171.24 -10.8894 -21.3926 39.0811 -6.73843e-06 -1.23785e-05 0.0443009 -0.0674282 22.961 40.9854 -6.48686e-06 -1.26872e-05 9.40225 17.4249 -53.2265 11.7543 -2.30145e-07 3.05095e-06 0.116444 -0.132055 -17.8605 -2.19251 6.46944 -1.45247e-06 -177.843 16.9269 167.791 -39.0811 -0.00228153 -0.0401928 -0.0408849 0.0504385 54.113 -40.9854 7.72618e-06 5.99936e-06 0.378493 -19.072 -65.7273 -11.7543 -5.6619e-06 -5.58687e-06 0.266694 -0.286625 -18.7532 
0 0 0 0 0 -0 -2.33593 90.1883 350.363 91.4764 9.63462 -0.308746 15.7357 5.1072e-06 -5.51765e-07 126.551 80.731 -127.427 8.98455 -0.406207 -4.3199e-07 7.31356 11.0038 -2.45925 16.3773 -1.3905e-06 -6.99897e-07 -4.43772 -3.88253 -0.0214254 6.45672 -1.25837e-06 -1.02172e-07 -0.785559 -15.4974 4.98955 12.9942 -0.242716 4.98039 -90.2846 0.886844 -87.2223 5.34809 -7.22636e-06 -6.2814e-07 -60.7452 -16.563 29.7553 24.3286 1.87007e-05 4.90208e-06 2.70888 10.4797 -14.58 22.2916 -9.88446e-07 4.63217e-06 9.83557 5.13127 4.38948 12.9945 -0.242716 -4.98039 89.9896 -1.20504 -105.496 -5.34813 -1.25947e-06 -3.79883e-06 -49.6996 -20.2832 6.92602 -24.3289 0.000322201 -8.65921e-06 15.4126 9.05291 -60.2718 -22.2915 -0.000108084 -4.47941e-06 19.5222 5.27868 0.65961 -2.19248 -6.46944 -1.22533e-07 170.251 -12.9225 -24.0701 39.0811 -6.73843e-06 -1.23785e-05 0.0311447 -0.042258 22.3563 40.9854 -6.48686e-06 -1.26872e-05 8.97447 14.5389 -50.8478 11.7543 -2.30145e-07 3.05095e-06 0.107647 -0.121856 -17.7623 -2.19251 6.46944 -1.45247e-06 -178.975 13.9518 171.022 -39.0811 -0.00228153 -0.0401928 -0.0613051 0.0745953 47.9655 -40.9854 7.72618e-06 5.99936e-06 4.72099 -18.8778 -57.3355 -11.7543 -5.6619e-06 -5.58687e-06 0.794663 -0.926192 -23.3669 
0 0 0 0 0 -0 -2.17277 89.5948 346.995 92.1966 2.67684 -1.62531 15.7357 5.1072e-06 -5.51765e-07 130.143 80.8664 -131.71 8.98455 -0.406207 -4.3199e-07 6.46715 11.7603 -3.80741 16.3773 -1.3905e-06 -6.99897e-07 -4.50278 -2.1036 0.276513 6.45672 -1.25837e-06 -1.02172e-07 -1.21567 -13.4226 4.01362 12.9942 -0.242716 4.98039 -90.5682 1.65269 -86.0299 5.34809 -7.22636e-06 -6.2814e-07 -59.9297 -19.3107 34.6416 24.3286 1.87007e-05 4.90208e-06 2.31296 9.4767 -13.7832 22.2916 -9.88446e-07 4.63217e-06 11.6149 5.15889 3.73658 12.9945 -0.242716 -4.98039 89.9915 -1.0624 -105.458 -5.34813 -1.25947e-06 -3.79883e-06 -50.9208 -19.8809 1.25064 -24.3289 0.000322201 -8.65921e-06 19.1926 7.18238 -70.2367 -22.2915 -0.000108084 -4.47941e-06 19.5073 5.26497 1.03319 -2.19248 -6.46944 -1.22534e-07 168.944 -15.4933 -27.7196 39.0811 -6.73843e-06 -1.23785e-05 0.00908744 -0.00253857 21.1849 40.9854 -6.48686e-06 -1.26872e-05 8.45812 11.0582 -47.8754 11.7543 -2.30145e-07 3.05095e-06 0.0855934 -0.0964773 -17.5173 -2.19251 6.46944 -1.45247e-06 178.889 9.69074 174.468 -39.0811 -0.00228153 -0.0401928 0.00427271 0.0239531 38.2949 -40.9854 7.72618e-06 5.99936e-06 -0.066591 -13.5076 -65.4605 -11.7543 -5.6619e-06 -5.58687e-06 -1.61836 -4.29243 -34.0342 
